PathFileType	4	(X/Y/Z)	D:\TRACE\v60_Jaco2_6-2-23\ArmBodyNoDRS_DMP_1-v60.trc
DataRate	CameraRate	NumFrames	NumMarkers	Units	OrigDataRate	OrigDataStartFrame	OrigNumFrames
100.00	100.00	      38	9	mm	100.00	4651	      5315
Frame#	Time	front left toe			Front right toe			aft left toe			aft right toe			Arm			FL body			FR body			AL Body			AR Body			
		X1	Y1	Z1	X2	Y2	Z2	X3	Y3	Z3	X4	Y4	Z4	X5	Y5	Z5	X6	Y6	Z6	X7	Y7	Z7	X8	Y8	Z8	X9	Y9	Z9	

4651	46.500	-126.39379	20.15385	-173.19041	249.64790	120.40916	-224.70287	-39.01303	114.93236	435.36255	331.08557	17.45120	390.05606	87.79867	1091.02148	-555.56122	-29.00499	577.53369	-328.70651	128.77185	575.35962	-347.79349	94.61176	568.82111	607.34814	247.65765	555.22894	589.80756	
4652	46.510	-126.42249	20.04436	-173.26051	249.96136	129.71219	-226.29929	-37.43986	124.06190	434.71259	331.06027	17.30046	389.98196	86.08731	1090.94189	-556.06989	-29.16398	577.22253	-328.74203	128.55807	574.88855	-348.25375	96.36398	568.64929	606.42297	247.84747	554.97101	589.58368	
4653	46.520	-126.51041	20.02961	-173.29663	250.33109	138.00110	-227.57751	-36.34583	132.02640	433.57547	331.10043	17.22391	389.87952	84.56178	1090.78589	-556.48993	-29.65969	576.95728	-328.71307	128.71751	574.90277	-348.91373	96.38776	568.47437	605.92645	249.14278	554.65454	589.25201	
4654	46.530	-126.59109	20.00769	-173.22214	249.81680	144.93721	-228.99290	-35.03461	139.02696	432.77274	331.03583	17.18680	389.83258	83.10197	1090.52661	-556.81213	-30.08061	576.65808	-328.61563	128.27190	574.80347	-349.10214	97.64721	569.23590	609.02393	249.81226	554.67572	588.83356	
4655	46.540	-126.69203	20.03948	-173.13803	250.78258	149.88948	-230.40311	-34.15956	143.32747	432.25717	331.07941	17.09051	389.66016	81.64222	1090.13733	-557.65247	-30.74600	576.56427	-328.72299	127.50430	574.83038	-349.46130	98.96926	569.24768	608.89252	249.88625	554.91718	588.36090	
4656	46.550	-126.74969	20.08323	-173.16269	251.28485	151.12506	-231.48294	-33.96071	145.09830	431.95416	331.09998	17.08728	389.63422	80.05247	1089.89844	-558.45227	-31.07932	576.49768	-328.85178	126.63518	574.95508	-349.76743	99.02122	569.31012	608.11957	250.88731	555.18018	588.00836	
4657	46.560	-126.80167	20.04726	-173.10960	251.68915	150.00925	-232.12506	-33.84001	144.15276	432.05984	331.20663	17.10021	389.58112	78.66949	1089.85059	-558.96832	-31.76349	576.58679	-329.01385	126.32207	574.99219	-349.92249	98.81962	568.61444	605.28186	251.45190	555.40387	587.61047	
4658	46.570	-126.82624	20.00245	-172.99115	251.93571	146.63326	-232.53732	-32.79041	141.69495	432.80896	331.31070	17.08100	389.51343	76.48170	1089.98621	-559.62659	-32.21712	576.62909	-329.06335	125.78519	574.71716	-349.82263	99.47858	568.73029	605.06128	252.35402	555.48834	587.04163	
4659	46.580	-126.74355	20.00523	-172.86095	251.02885	141.78233	-233.16512	-32.09797	138.50798	433.31613	331.67230	17.17187	389.44302	74.73224	1090.32751	-560.38184	-32.54451	576.70245	-329.07907	125.60761	575.19958	-350.53430	100.28570	568.90717	604.78491	253.42415	555.54846	586.52808	
4660	46.590	-126.72487	20.04230	-172.87152	250.88864	136.70341	-233.32410	-29.72721	133.80875	434.39771	331.73657	17.16696	389.45493	73.40905	1090.61621	-560.79413	-32.76717	576.73157	-329.10950	125.25674	575.45441	-350.65781	100.98895	569.01617	604.40826	254.02188	555.51740	586.00739	
4661	46.600	-126.72792	20.09228	-172.91420	250.24501	131.02058	-233.98804	-28.43886	129.06602	434.81781	331.88025	17.18860	389.41705	71.82100	1090.88196	-561.59338	-33.01879	576.75983	-329.19293	124.94341	575.61926	-351.02454	102.78606	569.48004	604.86176	254.32054	556.04706	585.32806	
4662	46.610	-126.73437	20.11938	-172.96718	250.56052	125.11395	-235.10756	-26.87302	122.97942	435.00714	332.00403	17.13300	389.38303	70.43904	1091.11853	-562.44965	-33.31251	576.79309	-329.35620	124.53956	575.62134	-351.44580	103.44337	569.60620	604.36334	255.18306	556.11444	584.97949	
4663	46.620	-126.88263	20.03823	-172.91437	248.91463	117.50694	-237.03979	-25.69666	115.41125	435.23874	332.11026	17.00441	389.26733	69.41649	1091.04480	-563.22809	-33.65179	576.81183	-329.42084	124.16282	575.60223	-351.76157	105.51104	569.53876	603.29803	255.48189	555.89777	584.31586	
4664	46.630	-126.92310	19.97968	-172.73003	250.02840	110.93612	-238.13718	-25.29196	107.70465	435.24582	332.30640	16.99695	389.25452	67.72189	1091.03064	-564.32855	-34.07362	576.74530	-329.74677	123.67511	575.54663	-352.17603	106.02596	569.42328	603.12903	257.15033	556.02063	584.27423	
4665	46.640	-126.93316	19.94988	-172.69157	250.55913	103.61209	-239.40712	-24.17378	99.61801	434.68509	332.34003	16.90929	389.21259	66.63472	1090.77734	-565.12848	-34.51511	576.78833	-329.94635	122.98958	575.06915	-351.73477	106.51850	569.20850	602.64801	257.12643	555.95441	583.68768	
4666	46.650	-126.90577	19.92363	-172.65404	250.61391	95.29856	-240.86838	-22.81883	91.87291	433.40903	332.35431	16.85757	389.16537	65.56882	1090.83240	-566.04028	-34.73568	576.86566	-330.10364	122.78625	575.08838	-351.89264	107.81470	568.97766	602.26880	257.61560	555.91254	583.20044	
4667	46.660	-126.91061	19.93854	-172.65991	250.42659	87.48275	-241.39412	-20.79953	83.49831	432.52432	332.41458	16.83394	389.15225	64.18899	1091.04102	-567.32220	-35.09330	576.93353	-330.27756	122.55521	576.08160	-353.92603	107.69717	570.08765	606.06952	259.37622	555.68713	582.71741	
4668	46.670	-126.92712	19.91757	-172.71136	250.12422	78.81171	-242.60011	-20.52401	75.95000	431.45490	332.41858	16.83286	389.10565	63.11266	1091.19946	-568.34082	-35.38429	577.01038	-330.46362	122.36849	576.09033	-353.96094	108.40821	570.07343	605.88635	259.56342	555.54340	581.90997	
4669	46.680	-126.98514	19.93050	-172.66730	249.57513	70.57896	-243.28593	-20.34019	67.68802	430.60995	332.40292	16.75429	388.94568	61.86502	1091.33728	-569.53265	-35.72870	577.04645	-330.69699	122.07406	576.25116	-354.22507	109.04327	569.79401	605.67188	260.64346	555.27478	581.43756	
4670	46.690	-126.96517	19.87855	-172.60767	249.48228	62.09703	-244.04024	-19.56337	58.78765	430.54401	332.38647	16.71059	388.86942	60.71873	1091.64868	-570.49744	-36.07815	577.05853	-330.99557	121.78878	576.19482	-354.55972	109.30878	569.77295	604.94177	261.68430	555.34430	580.67999	
4671	46.700	-126.95089	19.85673	-172.56496	248.76126	53.85932	-245.40631	-19.63328	50.64833	430.29367	332.38806	16.67607	388.77856	60.07164	1091.95239	-571.68567	-36.66425	577.09814	-331.36923	121.33831	576.26343	-355.11179	110.34711	569.33508	603.97620	262.11557	555.06464	579.67407	
4672	46.710	-126.93987	19.87520	-172.54439	248.79080	46.45525	-246.20119	-19.63996	43.37701	429.68027	332.39111	16.60051	388.66354	59.18768	1092.16565	-572.91681	-36.90549	577.15155	-331.72003	120.98606	576.44818	-355.74008	111.64585	569.20978	603.58417	262.92874	554.85791	579.05835	
4673	46.720	-126.93384	19.94379	-172.59509	249.54387	40.33441	-246.03603	-19.32123	36.57358	429.38443	332.38266	16.60623	388.60669	58.63222	1092.33887	-574.55505	-37.14773	577.35333	-332.18811	120.70359	576.76630	-356.20987	112.09952	568.88763	602.99286	263.62497	554.51733	578.26941	
4674	46.730	-126.90955	19.95397	-172.52805	249.36861	33.52437	-247.08316	-19.39800	30.02908	428.85913	332.36676	16.57373	388.55145	57.75872	1092.53284	-575.74072	-37.44937	577.44995	-332.60635	120.38555	576.79218	-356.79276	112.76964	568.47980	602.20190	263.69104	554.63739	577.88751	
4675	46.740	-126.88677	19.94940	-172.56383	249.59857	27.53059	-247.52728	-19.70594	23.64797	427.85638	332.36597	16.43553	388.37363	57.17670	1092.82275	-577.07562	-37.94305	577.51697	-333.19907	119.29035	576.38092	-356.75156	113.57668	568.60327	601.92694	264.74234	554.36151	576.86823	
4676	46.750	-126.86069	19.87516	-172.49559	249.23535	20.87874	-248.83479	-19.81689	17.01258	426.55511	332.40244	16.36895	388.32562	56.14224	1093.22583	-578.47540	-38.20272	577.58801	-333.54770	118.88057	576.32562	-357.37161	114.27390	567.65857	600.55194	265.21585	554.28094	576.26447	
4677	46.760	-126.84140	19.87507	-172.48840	249.59174	18.65187	-250.12370	-20.56491	15.11279	424.34537	332.46548	16.29140	388.21069	55.86181	1093.75952	-579.47485	-38.44032	577.75079	-334.22934	118.51377	576.57800	-358.07651	114.05287	568.50793	600.40649	266.22464	554.27991	575.31464	
4678	46.770	-126.83730	19.96679	-172.63443	250.09343	18.15721	-250.61864	-21.26974	13.33391	424.25507	332.26974	16.30812	388.12881	55.34840	1094.38672	-580.75751	-39.01405	578.20801	-334.84100	118.16280	577.39337	-359.38223	115.26424	568.81024	599.42798	266.06393	554.94867	574.08179	
4679	46.780	-126.39796	20.44212	-173.00522	249.66364	18.04988	-250.45619	-21.33818	14.29217	425.49496	332.63397	17.48944	388.03885	54.41639	1095.09595	-582.41162	-39.38590	578.74249	-335.33331	117.97414	577.85364	-359.41547	116.14365	570.76929	599.11591	266.81165	556.17511	572.97736	
4680	46.790	-125.31923	23.78239	-172.84613	249.59323	17.91029	-249.96428	-19.98117	13.23487	425.57327	331.76749	19.81737	388.94269	53.48812	1095.88538	-584.02905	-39.63292	579.39111	-335.79965	117.19653	578.61285	-360.05905	117.40964	572.09143	599.10162	269.06824	557.86816	572.79498	
4681	46.800	-121.62053	27.17612	-170.19110	249.72646	18.28245	-250.37112	-20.23647	13.23592	425.18765	329.65552	23.28073	392.29166	52.73074	1096.75720	-585.31592	-40.07557	580.47925	-336.27338	116.70661	579.66174	-360.81598	117.79383	572.81512	598.04559	268.19571	558.11615	571.71942	
4682	46.810	-117.98792	32.11994	-167.41583	249.68176	18.08197	-250.61481	-20.23716	13.20757	425.06729	326.41956	29.42224	394.87439	51.27613	1097.42529	-586.10315	-40.50761	580.76385	-336.94058	116.58022	580.20691	-362.04904	117.27992	572.84314	596.56836	268.91125	558.71826	570.95337	
4683	46.820	-116.35964	41.50952	-167.39941	249.75673	17.81205	-250.57677	-20.23195	13.15166	425.05283	325.01080	38.03395	395.53998	50.61436	1097.95251	-586.52228	-40.70592	580.52362	-337.60342	116.68452	580.74792	-363.33749	118.22790	573.19366	596.31433	267.98257	559.53131	570.13501	
4684	46.830	-116.06479	50.48170	-167.76186	249.80051	17.66959	-250.60561	-20.21613	13.14458	425.04361	323.95245	48.84202	393.82510	49.57646	1098.48682	-587.28253	-40.79643	580.23724	-338.10416	116.39902	579.54309	-363.15637	117.32747	573.48346	595.23492	268.09750	559.70728	569.41473	
4685	46.840	-117.73435	62.32008	-170.11203	249.86165	17.68366	-250.44443	-20.23108	13.07323	425.19330	326.08054	59.99746	391.15881	48.91210	1098.37646	-588.07855	-40.62830	579.95441	-338.73505	116.46756	579.23804	-363.48584	117.59089	573.44690	594.89044	267.96710	559.56415	568.87787	
4686	46.850	-119.23640	73.33826	-171.93985	249.95483	17.62153	-250.37033	-20.38154	12.69910	425.14481	328.71902	71.63810	388.21613	48.25479	1097.61743	-588.99353	-40.77457	579.67853	-339.28400	116.57103	579.16199	-363.62308	116.81802	573.16821	594.44812	267.89816	559.36987	568.89520	
4687	46.860	-121.28234	85.08786	-174.37526	249.92139	17.38317	-250.52702	-20.53546	12.34917	425.19171	330.78098	82.84242	385.25531	48.19675	1096.55408	-589.44055	-40.46329	578.84302	-339.55753	116.41868	578.82953	-364.05820	115.84474	572.59344	594.41125	267.72507	559.00183	568.66290	
4688	46.870	-122.84881	96.40941	-176.12561	250.01945	17.18111	-250.43149	-20.78266	12.30962	425.09268	332.31546	93.76566	382.49997	48.38352	1095.69702	-589.92847	-40.79024	578.51392	-340.11780	116.07839	578.26355	-364.43616	115.28631	571.99719	593.68384	267.51361	558.66449	568.26892	
